<svg width="16" height="13" viewBox="0 0 16 13" fill="none" xmlns="http://www.w3.org/2000/svg">
<path fill-rule="evenodd" clip-rule="evenodd" d="M15.9538 3.20747C15.9233 3.16622 15.8835 3.13271 15.8377 3.10961C15.7919 3.08651 15.7413 3.07448 15.69 3.07448H3.6416L2.80457 0.338697C2.78397 0.272135 2.74255 0.213933 2.68642 0.172655C2.63028 0.131378 2.56238 0.109204 2.4927 0.109376H0.32563C0.239267 0.109376 0.156441 0.143681 0.0953726 0.20475C0.0343044 0.265818 0 0.348643 0 0.435007C0 0.52137 0.0343044 0.604196 0.0953726 0.665264C0.156441 0.726333 0.239267 0.760637 0.32563 0.760637H2.25192L4.7217 8.84645C4.73265 8.87529 4.74647 8.90294 4.76297 8.929C4.78049 8.9511 4.8005 8.97111 4.8226 8.98863C4.84681 9.00686 4.87395 9.02082 4.90286 9.0299H4.92121C4.95033 9.03818 4.98036 9.04281 5.01063 9.04366H14.0412C14.1109 9.04383 14.1788 9.02166 14.235 8.98038C14.2911 8.93911 14.3325 8.8809 14.3531 8.81434L15.9859 3.46661C15.9991 3.42359 16.0031 3.37827 15.9976 3.33361C15.992 3.28895 15.9771 3.24595 15.9538 3.20747ZM6.49905 9.94248C6.21468 9.94248 5.93668 10.0268 5.70023 10.1848C5.46378 10.3428 5.27949 10.5673 5.17067 10.8301C5.06184 11.0928 5.03337 11.3819 5.08884 11.6608C5.14432 11.9397 5.28126 12.1959 5.48234 12.397C5.68343 12.5981 5.93962 12.735 6.21853 12.7905C6.49745 12.846 6.78656 12.8175 7.04928 12.7087C7.31201 12.5999 7.53658 12.4156 7.69457 12.1791C7.85256 11.9427 7.93688 11.6647 7.93688 11.3803C7.93688 10.999 7.78539 10.6333 7.51575 10.3636C7.2461 10.094 6.88039 9.94248 6.49905 9.94248ZM6.49905 12.1646C6.34404 12.1641 6.19263 12.1177 6.06396 12.0313C5.93529 11.9448 5.83513 11.8222 5.77612 11.6788C5.71711 11.5355 5.7019 11.3779 5.73242 11.2259C5.76294 11.0739 5.83782 10.9344 5.94759 10.8249C6.05736 10.7155 6.19711 10.641 6.34918 10.6109C6.50125 10.5809 6.65882 10.5965 6.80199 10.656C6.94517 10.7154 7.06753 10.8159 7.1536 10.9448C7.23968 11.0737 7.28562 11.2253 7.28562 11.3803C7.28562 11.4835 7.26525 11.5857 7.2257 11.681C7.18614 11.7763 7.12816 11.8628 7.05509 11.9357C6.98202 12.0085 6.8953 12.0663 6.79988 12.1055C6.70446 12.1448 6.60224 12.1649 6.49905 12.1646ZM11.7866 10.1848C12.0231 10.0268 12.301 9.94248 12.5854 9.94248C12.9668 9.94248 13.3325 10.094 13.6021 10.3636C13.8718 10.6333 14.0233 10.999 14.0233 11.3803C14.0233 11.6647 13.9389 11.9427 13.7809 12.1791C13.6229 12.4156 13.3984 12.5999 13.1357 12.7087C12.8729 12.8175 12.5838 12.846 12.3049 12.7905C12.026 12.735 11.7698 12.5981 11.5687 12.397C11.3676 12.1959 11.2307 11.9397 11.1752 11.6608C11.1197 11.3819 11.1482 11.0928 11.257 10.8301C11.3659 10.5673 11.5502 10.3428 11.7866 10.1848ZM12.1497 12.0324C12.2787 12.1186 12.4303 12.1646 12.5854 12.1646C12.7932 12.164 12.9924 12.0812 13.1393 11.9342C13.2863 11.7873 13.3691 11.5881 13.3697 11.3803C13.3697 11.2252 13.3237 11.0736 13.2375 10.9446C13.1513 10.8156 13.0289 10.7151 12.8855 10.6557C12.7422 10.5964 12.5845 10.5808 12.4324 10.6111C12.2803 10.6414 12.1405 10.7161 12.0308 10.8257C11.9212 10.9354 11.8465 11.0752 11.8162 11.2273C11.7859 11.3794 11.8015 11.5371 11.8608 11.6804C11.9202 11.8237 12.0207 11.9462 12.1497 12.0324Z" fill="white"/>
</svg>
