<svg width="141" height="115" viewBox="0 0 141 115" fill="none" xmlns="http://www.w3.org/2000/svg">
<g filter="url(#filter0_d_1011_2159)">
<path d="M23.894 24.5035C21.9389 31.2313 21.3365 38.2795 22.1216 45.2409C22.9067 52.2024 25.0636 58.9392 28.4679 65.0622C31.8723 71.1852 36.4564 76.5731 41.9557 80.9146C47.4549 85.2561 53.7603 88.4653 60.5076 90.3567C67.2548 92.2481 74.3103 92.7843 81.2664 91.9343C88.2225 91.0843 94.9415 88.865 101.035 85.4045C107.129 81.944 112.477 77.3109 116.769 71.7729C121.062 66.2349 124.215 59.9017 126.046 53.139C133.963 24.9438 104.78 41.0199 76.5688 33.0953C48.3577 25.1706 31.8087 -3.70192 23.894 24.5035Z" fill="#00BCE3"/>
</g>
<defs>
<filter id="filter0_d_1011_2159" x="0.789062" y="0.398438" width="139.578" height="113.93" filterUnits="userSpaceOnUse" color-interpolation-filters="sRGB">
<feFlood flood-opacity="0" result="BackgroundImageFix"/>
<feColorMatrix in="SourceAlpha" type="matrix" values="0 0 0 0 0 0 0 0 0 0 0 0 0 0 0 0 0 0 127 0" result="hardAlpha"/>
<feOffset dx="-4" dy="5"/>
<feGaussianBlur stdDeviation="8.5"/>
<feComposite in2="hardAlpha" operator="out"/>
<feColorMatrix type="matrix" values="0 0 0 0 0 0 0 0 0 0 0 0 0 0 0 0 0 0 0.23 0"/>
<feBlend mode="normal" in2="BackgroundImageFix" result="effect1_dropShadow_1011_2159"/>
<feBlend mode="normal" in="SourceGraphic" in2="effect1_dropShadow_1011_2159" result="shape"/>
</filter>
</defs>
</svg>
